<?xml version="1.0" encoding="UTF-8"?>
<svg xmlns="http://www.w3.org/2000/svg" xmlns:xlink="http://www.w3.org/1999/xlink" width="36pt" height="36pt" viewBox="0 0 36 36" version="1.1">
<g id="surface3839">
<path style=" stroke:none;fill-rule:nonzero;fill:rgb(100%,100%,100%);fill-opacity:1;" d="M 30.679688 11.742188 C 30.53125 11.835938 27.015625 13.785156 27.015625 18.109375 C 27.183594 23.039062 31.449219 24.769531 31.523438 24.769531 C 31.449219 24.859375 30.878906 27.125 29.1875 29.496094 C 27.84375 31.539062 26.355469 33.601562 24.089844 33.601562 C 21.9375 33.601562 21.164062 32.238281 18.679688 32.238281 C 16.015625 32.238281 15.257812 33.601562 13.21875 33.601562 C 10.953125 33.601562 9.351562 31.429688 7.9375 29.40625 C 6.097656 26.753906 4.535156 22.597656 4.476562 18.605469 C 4.441406 16.488281 4.847656 14.410156 5.875 12.644531 C 7.328125 10.175781 9.925781 8.503906 12.757812 8.449219 C 14.929688 8.375 16.859375 9.9375 18.183594 9.9375 C 19.453125 9.9375 21.828125 8.449219 24.511719 8.449219 C 25.671875 8.449219 28.765625 8.796875 30.679688 11.742188 Z M 18 8.027344 C 17.613281 6.09375 18.679688 4.160156 19.675781 2.929688 C 20.945312 1.4375 22.949219 0.425781 24.679688 0.425781 C 24.789062 2.359375 24.089844 4.253906 22.839844 5.632812 C 21.71875 7.125 19.785156 8.246094 18 8.027344 Z M 18 8.027344 "/>
</g>
</svg>
