<?xml version="1.0" encoding="UTF-8"?>
<svg xmlns="http://www.w3.org/2000/svg" xmlns:xlink="http://www.w3.org/1999/xlink" width="36pt" height="36pt" viewBox="0 0 36 36" version="1.1">
<g id="surface2165">
<path style=" stroke:none;fill-rule:nonzero;fill:rgb(100%,100%,100%);fill-opacity:1;" d="M 13.707031 5.804688 C 13.683594 5.804688 13.660156 5.804688 13.636719 5.808594 C 13.445312 5.820312 8.929688 6.210938 6.035156 8.539062 C 4.523438 9.9375 1.5 18.109375 1.5 25.175781 C 1.5 25.300781 1.53125 25.417969 1.59375 25.527344 C 3.679688 29.195312 9.371094 30.152344 10.667969 30.195312 L 10.691406 30.195312 C 10.921875 30.195312 11.136719 30.085938 11.269531 29.902344 L 12.582031 28.097656 C 9.042969 27.183594 7.238281 25.628906 7.132812 25.539062 C 6.835938 25.277344 6.808594 24.824219 7.070312 24.527344 C 7.210938 24.367188 7.40625 24.285156 7.605469 24.285156 C 7.773438 24.285156 7.945312 24.34375 8.082031 24.464844 C 8.125 24.5 11.449219 27.324219 17.996094 27.324219 C 24.554688 27.324219 27.882812 24.488281 27.917969 24.460938 C 28.054688 24.339844 28.222656 24.285156 28.390625 24.285156 C 28.589844 24.285156 28.785156 24.367188 28.925781 24.527344 C 29.1875 24.824219 29.160156 25.277344 28.867188 25.539062 C 28.761719 25.632812 26.953125 27.179688 23.414062 28.097656 L 24.726562 29.902344 C 24.863281 30.085938 25.078125 30.195312 25.308594 30.195312 L 25.332031 30.195312 C 26.628906 30.15625 32.320312 29.195312 34.40625 25.527344 C 34.46875 25.421875 34.5 25.300781 34.5 25.175781 C 34.5 18.109375 31.476562 9.9375 29.925781 8.507812 C 27.070312 6.210938 22.554688 5.824219 22.363281 5.808594 C 22.34375 5.804688 22.320312 5.804688 22.300781 5.804688 C 22.023438 5.804688 21.765625 5.96875 21.652344 6.226562 C 21.640625 6.242188 21.542969 6.472656 21.433594 6.824219 C 23.320312 7.140625 25.640625 7.785156 27.742188 9.089844 C 28.078125 9.296875 28.179688 9.738281 27.972656 10.074219 C 27.835938 10.292969 27.601562 10.414062 27.363281 10.414062 C 27.234375 10.414062 27.105469 10.378906 26.984375 10.308594 C 23.375 8.070312 18.867188 7.957031 18 7.957031 C 17.132812 7.957031 12.625 8.070312 9.019531 10.308594 C 8.898438 10.382812 8.769531 10.414062 8.640625 10.414062 C 8.398438 10.414062 8.164062 10.296875 8.027344 10.078125 C 7.816406 9.742188 7.921875 9.296875 8.257812 9.089844 C 10.359375 7.785156 12.679688 7.144531 14.570312 6.824219 C 14.457031 6.472656 14.355469 6.246094 14.347656 6.230469 C 14.234375 5.972656 13.984375 5.804688 13.707031 5.804688 Z M 18 10.957031 C 18.445312 10.957031 22.425781 11.011719 25.402344 12.855469 C 25.988281 13.222656 26.664062 13.417969 27.359375 13.417969 C 27.949219 13.417969 28.515625 13.285156 29.019531 13.03125 C 29.945312 15.359375 31.035156 19.03125 31.386719 22.800781 C 31.324219 22.714844 31.261719 22.632812 31.191406 22.554688 C 30.488281 21.746094 29.46875 21.285156 28.394531 21.285156 C 27.5 21.285156 26.632812 21.609375 25.996094 22.160156 C 25.886719 22.25 23.257812 24.328125 18 24.328125 C 12.742188 24.328125 10.117188 22.253906 10.058594 22.207031 C 9.382812 21.613281 8.511719 21.285156 7.609375 21.285156 C 6.542969 21.285156 5.527344 21.742188 4.824219 22.539062 C 4.75 22.621094 4.679688 22.707031 4.613281 22.796875 C 4.964844 19.03125 6.050781 15.351562 6.972656 13.027344 C 7.480469 13.277344 8.046875 13.414062 8.640625 13.414062 C 9.332031 13.414062 10.007812 13.222656 10.597656 12.855469 C 13.574219 11.007812 17.554688 10.957031 18 10.957031 Z M 13.335938 15.066406 C 11.949219 15.066406 10.824219 16.351562 10.824219 17.933594 C 10.824219 19.519531 11.949219 20.804688 13.335938 20.804688 C 14.722656 20.804688 15.847656 19.519531 15.847656 17.933594 C 15.847656 16.351562 14.722656 15.066406 13.335938 15.066406 Z M 22.664062 15.066406 C 21.277344 15.066406 20.152344 16.351562 20.152344 17.933594 C 20.152344 19.519531 21.277344 20.804688 22.664062 20.804688 C 24.050781 20.804688 25.175781 19.519531 25.175781 17.933594 C 25.175781 16.351562 24.050781 15.066406 22.664062 15.066406 Z M 22.664062 15.066406 "/>
</g>
</svg>
