<?xml version="1.0" encoding="UTF-8"?>
<svg xmlns="http://www.w3.org/2000/svg" xmlns:xlink="http://www.w3.org/1999/xlink" width="36pt" height="36pt" viewBox="0 0 36 36" version="1.1">
<defs>
<filter id="alpha" filterUnits="objectBoundingBox" x="0%" y="0%" width="100%" height="100%">
  <feColorMatrix type="matrix" in="SourceGraphic" values="0 0 0 0 1 0 0 0 0 1 0 0 0 0 1 0 0 0 1 0"/>
</filter>
<mask id="mask0">
  <g filter="url(#alpha)">
<rect x="0" y="0" width="36" height="36" style="fill:rgb(0%,0%,0%);fill-opacity:0.3;stroke:none;"/>
  </g>
</mask>
<clipPath id="clip1">
  <rect x="0" y="0" width="36" height="36"/>
</clipPath>
<g id="surface5450" clip-path="url(#clip1)">
<path style=" stroke:none;fill-rule:nonzero;fill:rgb(0%,0%,0%);fill-opacity:1;" d="M 18 3 C 9.714844 3 3 9.714844 3 18 C 3 26.285156 9.714844 33 18 33 C 26.285156 33 33 26.285156 33 18 C 33 9.714844 26.285156 3 18 3 Z M 18 3 "/>
</g>
</defs>
<g id="surface5445">
<use xlink:href="#surface5450" mask="url(#mask0)"/>
<path style=" stroke:none;fill-rule:nonzero;fill:rgb(0%,0%,0%);fill-opacity:1;" d="M 16.351562 3.148438 C 9.449219 3.898438 3.898438 9.449219 3.148438 16.199219 C 2.398438 23.25 6.449219 29.550781 12.601562 31.949219 C 13.050781 32.101562 13.5 31.800781 13.5 31.199219 L 13.5 28.800781 C 13.5 28.800781 12.898438 28.949219 12.148438 28.949219 C 10.050781 28.949219 9.148438 27.148438 9 26.101562 C 8.851562 25.5 8.550781 25.050781 8.101562 24.601562 C 7.648438 24.449219 7.5 24.449219 7.5 24.300781 C 7.5 24 7.949219 24 8.101562 24 C 9 24 9.75 25.050781 10.050781 25.5 C 10.800781 26.699219 11.699219 27 12.148438 27 C 12.75 27 13.199219 26.851562 13.5 26.699219 C 13.648438 25.648438 14.101562 24.601562 15 24 C 11.550781 23.25 9 21.300781 9 18 C 9 16.351562 9.75 14.699219 10.800781 13.5 C 10.648438 13.199219 10.5 12.449219 10.5 11.398438 C 10.5 10.800781 10.5 9.898438 10.949219 9 C 10.949219 9 13.050781 9 15.148438 10.949219 C 15.898438 10.648438 16.949219 10.5 18 10.5 C 19.050781 10.5 20.101562 10.648438 21 10.949219 C 22.949219 9 25.199219 9 25.199219 9 C 25.5 9.898438 25.5 10.800781 25.5 11.398438 C 25.5 12.601562 25.351562 13.199219 25.199219 13.5 C 26.25 14.699219 27 16.199219 27 18 C 27 21.300781 24.449219 23.25 21 24 C 21.898438 24.75 22.5 26.101562 22.5 27.449219 L 22.5 31.351562 C 22.5 31.800781 22.949219 32.25 23.550781 32.101562 C 29.101562 29.851562 33 24.449219 33 18.148438 C 33 9.148438 25.351562 2.101562 16.351562 3.148438 Z M 16.351562 3.148438 "/>
</g>
</svg>
