<svg xmlns="http://www.w3.org/2000/svg" xml:space="preserve" id="SvgjsSvg2535" width="200" height="200" x="0" y="0" style="enable-background:new 0 0 512 512" version="1.1" viewBox="0 0 512 512" xmlns:xlink="http://www.w3.org/1999/xlink" xmlns:svgjs="http://svgjs.dev/svgjs"><path d="M269.723 232.29h-27.427c-5.523 0-10 4.477-10 10v27.427c0 5.523 4.477 10 10 10h27.427c5.523 0 10-4.477 10-10V242.29c0-5.522-4.477-10-10-10zM192.296 77.437h-27.428c-5.523 0-10 4.477-10 10v27.427c0 5.523 4.477 10 10 10h27.428c5.523 0 10-4.477 10-10V87.437c0-5.523-4.477-10-10-10zm25.02 357.134h52.407c5.523 0 10-4.477 10-10V319.717c0-5.523-4.477-10-10-10H164.868c-5.523 0-10 4.477-10 10V424.57c0 5.523 4.477 10 10 10h52.428l.02.001zm129.835-47.427h-27.428c-5.523 0-10 4.477-10 10v27.427c0 5.523 4.477 10 10 10h27.428c5.523 0 10-4.477 10-10v-27.427c0-5.523-4.477-10-10-10zm0-184.854c5.523 0 10-4.477 10-10V87.437c0-5.523-4.477-10-10-10H242.296c-5.523 0-10 4.477-10 10v104.854c0 5.523 4.477 10 10 10h104.855zm-154.855 77.427c5.523 0 10-4.477 10-10V164.863c0-5.523-4.477-10-10-10H87.442c-5.523 0-10 4.477-10 10v104.853c0 5.523 4.477 10 10 10h104.854zm282.283 77.427h27.418c5.523 0 10-4.477 10-10v-27.427c0-5.523-4.477-10-10-10h-27.418c-5.523 0-10 4.477-10 10v27.427c0 5.523 4.477 10 10 10zm-387.137 0h27.427c5.523 0 10-4.477 10-10v-27.427c0-5.523-4.477-10-10-10H87.442c-5.523 0-10 4.477-10 10v27.427c0 5.523 4.477 10 10 10zm387.137-202.28c-5.523 0-10 4.477-10 10v104.854c0 5.523 4.477 10 10 10h27.418c5.523 0 10-4.477 10-10V164.864c0-5.523-4.477-10-10-10h-27.418zm-87.428-40c0 5.523 4.477 10 10 10h104.846c5.523 0 10-4.477 10-10V10c0-5.523-4.477-10-10-10H397.151c-5.523 0-10 4.477-10 10v104.864zm37.428 242.28c5.523 0 10-4.477 10-10V242.29c0-5.523-4.477-10-10-10H319.723c-5.523 0-10 4.477-10 10v104.854c0 5.523 4.477 10 10 10h104.856zM37.433 154.864h-27.43c-5.523 0-10 4.477-10 10v27.427c0 5.523 4.477 10 10 10h27.43c5.523 0 10-4.477 10-10v-27.427c0-5.523-4.477-10-10-10zm387.146 0h-27.428c-5.523 0-10 4.477-10 10v27.427c0 5.523 4.477 10 10 10h27.428c5.523 0 10-4.477 10-10v-27.427c0-5.523-4.478-10-10-10zm-269.71 319.707V502c0 5.523 4.477 10 10 10h27.428c5.523 0 10-4.477 10-10v-27.429c0-5.523-4.477-10-10-10h-27.428c-5.523 0-10 4.477-10 10zm357.128-77.427c0-5.523-4.477-10-10-10H397.151c-5.523 0-10 4.477-10 10V502c0 5.523 4.477 10 10 10h104.846c5.523 0 10-4.477 10-10V397.144zm-279.701 77.429V502c0 5.523 4.477 10 10 10h104.855c5.523 0 10-4.477 10-10v-27.427c0-5.523-4.477-10-10-10H242.296c-5.523 0-10 4.477-10 10zM.003 397.147V502c0 5.523 4.477 10 10 10H114.86c5.523 0 10-4.477 10-10V397.147c0-5.523-4.477-10-10-10H10.003c-5.522 0-10 4.477-10 10zM37.429 232.29H10.003c-5.523 0-10 4.477-10 10v104.854c0 5.523 4.477 10 10 10h27.426c5.523 0 10-4.477 10-10V242.29c0-5.522-4.477-10-10-10zM217.296 47.437h52.427c5.523 0 10-4.477 10-10V10c0-5.523-4.477-10-10-10H164.869c-5.523 0-10 4.477-10 10v27.437c0 5.523 4.477 10 10 10h52.427zm139.855-10V10c0-5.523-4.477-10-10-10h-27.428c-5.523 0-10 4.477-10 10v27.437c0 5.523 4.477 10 10 10h27.428c5.523 0 10-4.477 10-10zM.003 114.864c0 5.523 4.477 10 10 10H114.86c5.523 0 10-4.477 10-10V10c0-5.523-4.477-10-10-10H10.003c-5.523 0-10 4.477-10 10v104.864z" fill="url(&quot;#SvgjsLinearGradient2536&quot;)"></path><defs><linearGradient gradientTransform="rotate(0 0.5 0.5)" id="SvgjsLinearGradient2536"><stop stop-opacity=" 1" stop-color="rgba(33, 150, 243)" offset="0"></stop><stop stop-opacity=" 1" stop-color="rgba(165, 42, 42)" offset="0.48"></stop><stop stop-opacity=" 1" stop-color="rgba(102, 27, 241)" offset="1"></stop></linearGradient></defs></svg>