<?xml version="1.0" encoding="UTF-8"?>
<svg xmlns="http://www.w3.org/2000/svg" xmlns:xlink="http://www.w3.org/1999/xlink" width="36pt" height="36pt" viewBox="0 0 36 36" version="1.1">
<g id="surface816">
<path style=" stroke:none;fill-rule:evenodd;fill:rgb(12.941177%,12.941177%,12.941177%);fill-opacity:1;" d="M 28.5 31.5 L 7.5 31.5 C 5.84375 31.5 4.5 30.15625 4.5 28.5 L 4.5 7.5 C 4.5 5.84375 5.84375 4.5 7.5 4.5 L 28.5 4.5 C 30.15625 4.5 31.5 5.84375 31.5 7.5 L 31.5 28.5 C 31.5 30.15625 30.15625 31.5 28.5 31.5 Z M 28.5 31.5 "/>
<path style=" stroke:none;fill-rule:nonzero;fill:rgb(100%,100%,100%);fill-opacity:1;" d="M 25.691406 25.5 L 20.863281 25.5 L 10.371094 10.5 L 15.199219 10.5 Z M 21.441406 24.226562 L 23.363281 24.226562 L 14.625 11.773438 L 12.703125 11.773438 Z M 21.441406 24.226562 "/>
<path style=" stroke:none;fill-rule:nonzero;fill:rgb(100%,100%,100%);fill-opacity:1;" d="M 11.898438 25.5 L 17.300781 19.242188 L 16.59375 18.304688 L 10.367188 25.5 Z M 11.898438 25.5 "/>
<path style=" stroke:none;fill-rule:nonzero;fill:rgb(100%,100%,100%);fill-opacity:1;" d="M 18.335938 16.289062 L 19.015625 17.257812 L 24.851562 10.5 L 23.351562 10.5 Z M 18.335938 16.289062 "/>
</g>
</svg>
