<?xml version="1.0" encoding="UTF-8"?>
<svg xmlns="http://www.w3.org/2000/svg" xmlns:xlink="http://www.w3.org/1999/xlink" width="36pt" height="36pt" viewBox="0 0 36 36" version="1.1">
<g id="surface3186">
<path style=" stroke:none;fill-rule:nonzero;fill:rgb(0%,0%,0%);fill-opacity:1;" d="M 32.210938 23.644531 C 32.207031 23.550781 32.191406 23.460938 32.152344 23.375 C 32.074219 23.183594 31.921875 23.03125 31.726562 22.960938 C 29.464844 22.105469 27.9375 20.097656 27.664062 17.683594 C 27.894531 15.699219 29.035156 13.988281 30.882812 12.976562 C 31.078125 12.871094 31.214844 12.683594 31.257812 12.464844 C 31.265625 12.417969 31.269531 12.371094 31.269531 12.324219 C 31.273438 12.152344 31.269531 10.878906 31.269531 10.835938 C 31.273438 10.660156 31.21875 10.488281 31.105469 10.347656 C 29.316406 8.128906 26.78125 6.800781 24.324219 6.800781 C 23.96875 6.800781 23.644531 6.824219 23.332031 6.859375 C 24.199219 5.402344 24.585938 3.789062 24.402344 2.289062 C 24.464844 1.730469 24.46875 1.179688 24.386719 0.640625 C 24.332031 0.253906 23.992188 -0.0234375 23.59375 0.00390625 C 21.722656 0.128906 19.597656 1.269531 18.300781 2.839844 C 17.027344 4.390625 16.378906 6.242188 16.519531 7.894531 C 16.230469 7.804688 15.933594 7.699219 15.625 7.589844 C 14.59375 7.21875 13.429688 6.800781 11.976562 6.800781 C 9.179688 6.800781 6.34375 8.492188 4.582031 11.214844 C 3.558594 12.785156 3.039062 14.796875 2.996094 17.003906 C 2.988281 17.371094 2.996094 18.703125 3 18.996094 C 3.035156 22.464844 4.210938 26.351562 6.4375 29.742188 C 7.976562 32.082031 9.914062 34.472656 12.609375 34.5 C 12.628906 34.5 12.648438 34.5 12.667969 34.5 C 13.785156 34.5 14.542969 34.164062 15.273438 33.835938 C 16.070312 33.480469 16.824219 33.144531 18.199219 33.140625 C 19.558594 33.113281 20.316406 33.46875 21.097656 33.824219 C 21.828125 34.160156 22.570312 34.484375 23.71875 34.496094 C 26.359375 34.476562 28.375 31.949219 29.996094 29.484375 C 30.980469 27.980469 31.367188 27.191406 32.144531 25.46875 C 32.191406 25.367188 32.214844 25.257812 32.210938 25.144531 C 32.210938 25.054688 32.214844 23.753906 32.210938 23.644531 Z M 32.210938 23.644531 "/>
<path style=" stroke:none;fill-rule:nonzero;fill:rgb(100%,100%,100%);fill-opacity:1;" d="M 31.460938 23.660156 C 30.703125 25.335938 30.339844 26.089844 29.367188 27.570312 C 28.003906 29.644531 26.089844 32.226562 23.710938 32.246094 C 21.605469 32.261719 21.054688 30.867188 18.191406 30.890625 C 15.328125 30.902344 14.730469 32.273438 12.613281 32.25 C 10.242188 32.226562 8.425781 29.898438 7.0625 27.832031 C 3.261719 22.03125 2.855469 15.238281 5.210938 11.625 C 6.871094 9.058594 9.507812 7.554688 11.976562 7.554688 C 14.5 7.554688 16.078125 8.9375 18.160156 8.9375 C 20.183594 8.9375 21.410156 7.554688 24.324219 7.554688 C 26.523438 7.554688 28.855469 8.753906 30.519531 10.820312 C 25.074219 13.808594 25.960938 21.582031 31.460938 23.660156 Z M 31.460938 23.660156 "/>
<path style=" stroke:none;fill-rule:nonzero;fill:rgb(100%,100%,100%);fill-opacity:1;" d="M 22.125 5.808594 C 23.148438 4.496094 23.925781 2.640625 23.644531 0.75 C 21.976562 0.863281 20.019531 1.933594 18.878906 3.3125 C 17.84375 4.570312 16.988281 6.4375 17.324219 8.246094 C 19.144531 8.304688 21.03125 7.21875 22.125 5.808594 Z M 22.125 5.808594 "/>
<path style=" stroke:none;fill-rule:nonzero;fill:rgb(0%,0%,0%);fill-opacity:1;" d="M 12.664062 33 C 12.648438 33 12.628906 33 12.605469 33 C 9.914062 32.976562 7.976562 30.582031 6.4375 28.246094 C 2.671875 22.507812 1.894531 15.34375 4.582031 11.214844 C 6.34375 8.496094 9.179688 6.804688 11.976562 6.804688 C 13.425781 6.804688 14.59375 7.21875 15.625 7.589844 C 15.933594 7.699219 16.230469 7.804688 16.519531 7.894531 C 16.378906 6.242188 17.023438 4.390625 18.296875 2.839844 C 19.59375 1.269531 21.722656 0.128906 23.59375 0.00390625 C 23.988281 -0.0234375 24.328125 0.253906 24.386719 0.640625 C 24.664062 2.503906 24.054688 4.554688 22.71875 6.269531 C 22.484375 6.570312 22.222656 6.855469 21.945312 7.113281 C 22.621094 6.933594 23.390625 6.804688 24.324219 6.804688 C 26.78125 6.804688 29.316406 8.128906 31.105469 10.351562 C 31.246094 10.523438 31.300781 10.75 31.257812 10.964844 C 31.210938 11.183594 31.074219 11.371094 30.882812 11.476562 C 28.664062 12.691406 27.445312 14.90625 27.621094 17.394531 C 27.800781 19.9375 29.371094 22.070312 31.726562 22.960938 C 31.917969 23.035156 32.074219 23.183594 32.152344 23.375 C 32.234375 23.566406 32.230469 23.78125 32.144531 23.96875 C 31.363281 25.691406 30.976562 26.480469 29.992188 27.984375 C 28.371094 30.453125 26.359375 32.976562 23.71875 32.996094 C 22.566406 32.984375 21.824219 32.660156 21.097656 32.328125 C 20.3125 31.96875 19.558594 31.605469 18.195312 31.640625 C 16.824219 31.648438 16.070312 31.980469 15.273438 32.335938 C 14.539062 32.664062 13.785156 33 12.664062 33 Z M 11.976562 8.300781 C 9.683594 8.300781 7.328125 9.730469 5.839844 12.03125 C 3.847656 15.089844 3.820312 21.519531 7.691406 27.421875 C 8.933594 29.308594 10.621094 31.480469 12.621094 31.5 C 13.421875 31.519531 13.980469 31.269531 14.664062 30.964844 C 15.523438 30.582031 16.503906 30.148438 18.1875 30.140625 C 19.898438 30.117188 20.863281 30.570312 21.722656 30.960938 C 22.378906 31.265625 22.898438 31.507812 23.707031 31.496094 C 25.652344 31.480469 27.417969 29.171875 28.738281 27.160156 C 29.53125 25.953125 29.902344 25.257812 30.460938 24.042969 C 27.964844 22.804688 26.328125 20.363281 26.125 17.5 C 25.929688 14.71875 27.132812 12.21875 29.371094 10.652344 C 27.929688 9.167969 26.089844 8.300781 24.324219 8.300781 C 22.871094 8.300781 21.878906 8.675781 20.921875 9.039062 C 20.085938 9.359375 19.214844 9.6875 18.160156 9.6875 C 17.039062 9.6875 16.0625 9.335938 15.117188 9 C 14.160156 8.65625 13.167969 8.300781 11.976562 8.300781 Z M 22.953125 1.617188 C 21.683594 1.925781 20.304688 2.765625 19.457031 3.792969 C 19.085938 4.246094 17.980469 5.742188 18 7.460938 C 19.292969 7.285156 20.648438 6.488281 21.535156 5.347656 C 21.984375 4.773438 22.929688 3.351562 22.953125 1.617188 Z M 22.953125 1.617188 "/>
</g>
</svg>
