<?xml version="1.0" encoding="UTF-8"?>
<svg xmlns="http://www.w3.org/2000/svg" xmlns:xlink="http://www.w3.org/1999/xlink" width="36pt" height="36pt" viewBox="0 0 36 36" version="1.1">
<defs>
<linearGradient id="linear0" gradientUnits="userSpaceOnUse" x1="9.993" y1="-299.993011" x2="40.615002" y2="-330.61499" gradientTransform="matrix(0.75,0,0,-0.75,0,-217.5)">
<stop offset="0" style="stop-color:rgb(16.470589%,64.313728%,95.686275%);stop-opacity:1;"/>
<stop offset="1" style="stop-color:rgb(0%,47.843137%,85.09804%);stop-opacity:1;"/>
</linearGradient>
<filter id="alpha" filterUnits="objectBoundingBox" x="0%" y="0%" width="100%" height="100%">
  <feColorMatrix type="matrix" in="SourceGraphic" values="0 0 0 0 1 0 0 0 0 1 0 0 0 0 1 0 0 0 1 0"/>
</filter>
<mask id="mask0">
  <g filter="url(#alpha)">
<rect x="0" y="0" width="36" height="36" style="fill:rgb(0%,0%,0%);fill-opacity:0.05;stroke:none;"/>
  </g>
</mask>
<clipPath id="clip1">
  <rect x="0" y="0" width="36" height="36"/>
</clipPath>
<g id="surface1781" clip-path="url(#clip1)">
<path style=" stroke:none;fill-rule:nonzero;fill:rgb(0%,0%,0%);fill-opacity:1;" d="M 20.78125 15.875 C 20.78125 14.808594 21.007812 13.535156 22.097656 13.535156 L 25.308594 13.535156 L 25.308594 9.324219 L 25.273438 8.683594 L 24.636719 8.597656 C 24.179688 8.539062 23.234375 8.410156 21.484375 8.410156 C 17.304688 8.410156 15.007812 10.894531 15.007812 15.410156 L 15.007812 17.28125 L 11.296875 17.28125 L 11.296875 22.726562 L 15.007812 22.726562 L 15.007812 32.699219 C 15.972656 32.894531 16.976562 33 18 33 C 18.949219 33 19.878906 32.902344 20.78125 32.730469 L 20.78125 22.726562 L 24.554688 22.726562 L 25.398438 17.28125 L 20.78125 17.28125 Z M 20.78125 15.875 "/>
</g>
<mask id="mask1">
  <g filter="url(#alpha)">
<rect x="0" y="0" width="36" height="36" style="fill:rgb(0%,0%,0%);fill-opacity:0.05;stroke:none;"/>
  </g>
</mask>
<clipPath id="clip2">
  <rect x="0" y="0" width="36" height="36"/>
</clipPath>
<g id="surface1785" clip-path="url(#clip2)">
<path style=" stroke:none;fill-rule:nonzero;fill:rgb(0%,0%,0%);fill-opacity:1;" d="M 20.40625 15.875 C 20.40625 14.863281 20.625 13.160156 22.097656 13.160156 L 24.933594 13.160156 L 24.933594 9.34375 L 24.914062 9.015625 L 24.589844 8.972656 C 24.144531 8.910156 23.210938 8.785156 21.484375 8.785156 C 17.492188 8.785156 15.382812 11.074219 15.382812 15.410156 L 15.382812 17.65625 L 11.671875 17.65625 L 11.671875 22.351562 L 15.382812 22.351562 L 15.382812 32.757812 C 16.234375 32.90625 17.105469 33 18 33 C 18.820312 33 19.621094 32.914062 20.40625 32.789062 L 20.40625 22.351562 L 24.234375 22.351562 L 24.957031 17.65625 L 20.40625 17.65625 Z M 20.40625 15.875 "/>
</g>
</defs>
<g id="surface1775">
<path style=" stroke:none;fill-rule:nonzero;fill:url(#linear0);" d="M 18 3 C 9.714844 3 3 9.714844 3 18 C 3 25.519531 8.535156 31.75 15.753906 32.832031 C 16.484375 32.941406 17.238281 30.75 18 30.75 C 18.6875 30.75 19.367188 32.953125 20.035156 32.863281 C 27.355469 31.871094 33 25.59375 33 18 C 33 9.714844 26.285156 3 18 3 Z M 18 3 "/>
<use xlink:href="#surface1781" mask="url(#mask0)"/>
<use xlink:href="#surface1785" mask="url(#mask1)"/>
<path style=" stroke:none;fill-rule:nonzero;fill:rgb(100%,100%,100%);fill-opacity:1;" d="M 20.03125 21.976562 L 23.914062 21.976562 L 24.523438 18.03125 L 20.03125 18.03125 L 20.03125 15.875 C 20.03125 14.238281 20.566406 12.785156 22.097656 12.785156 L 24.558594 12.785156 L 24.558594 9.34375 C 24.128906 9.285156 23.210938 9.160156 21.484375 9.160156 C 17.875 9.160156 15.757812 11.066406 15.757812 15.410156 L 15.757812 18.03125 L 12.046875 18.03125 L 12.046875 21.976562 L 15.757812 21.976562 L 15.757812 32.832031 C 16.492188 32.941406 17.234375 33 18 33 C 18.691406 33 19.363281 32.953125 20.03125 32.863281 Z M 20.03125 21.976562 "/>
</g>
</svg>
