<?xml version="1.0" encoding="UTF-8"?>
<svg xmlns="http://www.w3.org/2000/svg" xmlns:xlink="http://www.w3.org/1999/xlink" width="36pt" height="36pt" viewBox="0 0 36 36" version="1.1">
<g id="surface919">
<path style=" stroke:none;fill-rule:nonzero;fill:rgb(90.196079%,29.019609%,9.803922%);fill-opacity:1;" d="M 19.5 12.75 L 13.5 12.75 C 10.601562 12.75 8.25 10.398438 8.25 7.5 C 8.25 4.601562 10.601562 2.25 13.5 2.25 L 19.5 2.25 Z M 19.5 12.75 "/>
<path style=" stroke:none;fill-rule:nonzero;fill:rgb(48.627451%,30.19608%,100%);fill-opacity:1;" d="M 18.75 23.25 L 13.5 23.25 C 10.601562 23.25 8.25 20.898438 8.25 18 C 8.25 15.101562 10.601562 12.75 13.5 12.75 L 18.75 12.75 Z M 18.75 23.25 "/>
<path style=" stroke:none;fill-rule:nonzero;fill:rgb(40.000001%,73.333335%,41.568628%);fill-opacity:1;" d="M 13.5 33.75 C 10.601562 33.75 8.25 31.398438 8.25 28.5 C 8.25 25.601562 10.601562 23.25 13.5 23.25 L 18.75 23.25 L 18.75 28.5 C 18.75 31.398438 16.398438 33.75 13.5 33.75 Z M 13.5 33.75 "/>
<path style=" stroke:none;fill-rule:nonzero;fill:rgb(100%,43.921569%,26.274511%);fill-opacity:1;" d="M 24 12.75 L 18.75 12.75 L 18.75 2.25 L 24 2.25 C 26.898438 2.25 29.25 4.601562 29.25 7.5 C 29.25 10.398438 26.898438 12.75 24 12.75 Z M 24 12.75 "/>
<path style=" stroke:none;fill-rule:nonzero;fill:rgb(16.078432%,71.372551%,96.470588%);fill-opacity:1;" d="M 29.25 18 C 29.25 20.898438 26.898438 23.25 24 23.25 C 21.101562 23.25 18.75 20.898438 18.75 18 C 18.75 15.101562 21.101562 12.75 24 12.75 C 26.898438 12.75 29.25 15.101562 29.25 18 Z M 29.25 18 "/>
</g>
</svg>
