<?xml version="1.0" encoding="UTF-8"?>
<svg xmlns="http://www.w3.org/2000/svg" xmlns:xlink="http://www.w3.org/1999/xlink" width="36pt" height="36pt" viewBox="0 0 36 36" version="1.1">
<g id="surface1774">
<path style=" stroke:none;fill-rule:nonzero;fill:rgb(100%,100%,100%);fill-opacity:1;" d="M 18 5.625 C 24.835938 5.625 30.375 11.164062 30.375 18 C 30.375 23.496094 26.792969 28.148438 21.835938 29.765625 C 21.839844 29.761719 21.839844 29.753906 21.839844 29.753906 C 21.839844 29.753906 21.003906 29.363281 21.023438 28.664062 C 21.042969 27.894531 21.023438 26.101562 21.023438 25.441406 C 21.023438 24.3125 20.308594 23.511719 20.308594 23.511719 C 20.308594 23.511719 25.917969 23.574219 25.917969 17.585938 C 25.917969 15.273438 24.710938 14.074219 24.710938 14.074219 C 24.710938 14.074219 25.347656 11.605469 24.492188 10.558594 C 23.535156 10.457031 21.820312 11.472656 21.089844 11.949219 C 21.089844 11.949219 19.929688 11.472656 18 11.472656 C 16.070312 11.472656 14.910156 11.949219 14.910156 11.949219 C 14.179688 11.472656 12.464844 10.457031 11.507812 10.558594 C 10.652344 11.605469 11.289062 14.074219 11.289062 14.074219 C 11.289062 14.074219 10.082031 15.273438 10.082031 17.585938 C 10.082031 23.574219 15.691406 23.511719 15.691406 23.511719 C 15.691406 23.511719 15.128906 24.148438 15.003906 25.089844 C 14.613281 25.222656 14.035156 25.386719 13.570312 25.386719 C 12.351562 25.386719 11.425781 24.203125 11.085938 23.652344 C 10.75 23.113281 10.066406 22.660156 9.425781 22.660156 C 9.003906 22.660156 8.796875 22.871094 8.796875 23.113281 C 8.796875 23.351562 9.386719 23.523438 9.777344 23.96875 C 10.601562 24.910156 10.585938 27.027344 13.511719 27.027344 C 13.832031 27.027344 14.480469 26.949219 14.96875 26.882812 C 14.964844 27.550781 14.964844 28.253906 14.976562 28.664062 C 14.992188 29.363281 14.160156 29.753906 14.160156 29.753906 C 14.160156 29.753906 14.160156 29.761719 14.160156 29.765625 C 9.207031 28.148438 5.625 23.496094 5.625 18 C 5.625 11.164062 11.164062 5.625 18 5.625 Z M 18 5.625 "/>
</g>
</svg>
