<?xml version="1.0" encoding="UTF-8"?>
<svg xmlns="http://www.w3.org/2000/svg" xmlns:xlink="http://www.w3.org/1999/xlink" width="36pt" height="36pt" viewBox="0 0 36 36" version="1.1">
<g id="surface2318">
<path style=" stroke:none;fill-rule:nonzero;fill:rgb(100%,75.686276%,2.745098%);fill-opacity:1;" d="M 32.707031 15.0625 L 31.5 15.0625 L 31.5 15 L 18 15 L 18 21 L 26.476562 21 C 25.242188 24.492188 21.917969 27 18 27 C 13.03125 27 9 22.96875 9 18 C 9 13.03125 13.03125 9 18 9 C 20.292969 9 22.382812 9.867188 23.972656 11.277344 L 28.214844 7.035156 C 25.535156 4.539062 21.949219 3 18 3 C 9.714844 3 3 9.714844 3 18 C 3 26.285156 9.714844 33 18 33 C 26.285156 33 33 26.285156 33 18 C 33 16.996094 32.898438 16.011719 32.707031 15.0625 Z M 32.707031 15.0625 "/>
<path style=" stroke:none;fill-rule:nonzero;fill:rgb(100%,23.921569%,0%);fill-opacity:1;" d="M 4.730469 11.019531 L 9.65625 14.632812 C 10.992188 11.332031 14.222656 9 18 9 C 20.292969 9 22.382812 9.867188 23.972656 11.277344 L 28.214844 7.035156 C 25.535156 4.539062 21.949219 3 18 3 C 12.238281 3 7.242188 6.253906 4.730469 11.019531 Z M 4.730469 11.019531 "/>
<path style=" stroke:none;fill-rule:nonzero;fill:rgb(29.803923%,68.627453%,31.37255%);fill-opacity:1;" d="M 18 33 C 21.875 33 25.394531 31.515625 28.058594 29.105469 L 23.414062 25.175781 C 21.910156 26.316406 20.035156 27 18 27 C 14.097656 27 10.785156 24.511719 9.539062 21.039062 L 4.644531 24.808594 C 7.128906 29.667969 12.171875 33 18 33 Z M 18 33 "/>
<path style=" stroke:none;fill-rule:nonzero;fill:rgb(9.803922%,46.27451%,82.352942%);fill-opacity:1;" d="M 32.707031 15.0625 L 31.5 15.0625 L 31.5 15 L 18 15 L 18 21 L 26.476562 21 C 25.882812 22.679688 24.804688 24.125 23.410156 25.179688 C 23.414062 25.175781 23.414062 25.175781 23.414062 25.175781 L 28.058594 29.105469 C 27.726562 29.402344 33 25.5 33 18 C 33 16.996094 32.898438 16.011719 32.707031 15.0625 Z M 32.707031 15.0625 "/>
</g>
</svg>
