<?xml version="1.0" encoding="UTF-8"?>
<svg xmlns="http://www.w3.org/2000/svg" xmlns:xlink="http://www.w3.org/1999/xlink" width="72pt" height="72pt" viewBox="0 0 72 72" version="1.1">
<g id="surface2783">
<path style=" stroke:none;fill-rule:evenodd;fill:rgb(12.941177%,12.941177%,12.941177%);fill-opacity:1;" d="M 57 63 L 15 63 C 11.6875 63 9 60.3125 9 57 L 9 15 C 9 11.6875 11.6875 9 15 9 L 57 9 C 60.3125 9 63 11.6875 63 15 L 63 57 C 63 60.3125 60.3125 63 57 63 Z M 57 63 "/>
<path style=" stroke:none;fill-rule:nonzero;fill:rgb(100%,100%,100%);fill-opacity:1;" d="M 51.386719 51 L 41.730469 51 L 20.742188 21 L 30.398438 21 Z M 42.878906 48.457031 L 46.726562 48.457031 L 29.25 23.542969 L 25.402344 23.542969 Z M 42.878906 48.457031 "/>
<path style=" stroke:none;fill-rule:nonzero;fill:rgb(100%,100%,100%);fill-opacity:1;" d="M 23.800781 51 L 34.601562 38.484375 L 33.191406 36.609375 L 20.734375 51 Z M 23.800781 51 "/>
<path style=" stroke:none;fill-rule:nonzero;fill:rgb(100%,100%,100%);fill-opacity:1;" d="M 36.675781 32.582031 L 38.03125 34.515625 L 49.703125 21 L 46.703125 21 Z M 36.675781 32.582031 "/>
</g>
</svg>
